<svg version="1.1" id="Layer_1" xmlns="http://www.w3.org/2000/svg" xmlns:xlink="http://www.w3.org/1999/xlink" x="0px" y="0px"
	 width="100%" viewBox="0 0 500 500" enable-background="new 0 0 500 500" xml:space="preserve">
<path fill="#000000" opacity="1.000000" stroke="none" 
	d="
M285.000000,501.000000 
	C190.000015,501.000000 95.500046,501.000000 1.000051,501.000000 
	C1.000034,334.333405 1.000034,167.666794 1.000017,1.000140 
	C167.666565,1.000093 334.333130,1.000093 500.999756,1.000047 
	C500.999847,167.666519 500.999847,334.333038 500.999939,500.999786 
	C429.166656,501.000000 357.333344,501.000000 285.000000,501.000000 
M235.129868,249.143097 
	C237.832458,244.985611 236.736694,240.765076 235.486023,236.560883 
	C234.912827,240.620743 234.339630,244.680618 233.167862,248.930374 
	C232.564255,249.436630 231.960632,249.942871 231.357025,250.449112 
	C231.514252,250.660034 231.671478,250.870941 231.828705,251.081848 
	C232.736206,250.596756 233.643723,250.111664 235.129868,249.143097 
M213.013458,215.621109 
	C213.947296,215.167633 215.686737,214.729263 215.695541,214.258453 
	C215.858521,205.554001 215.814957,196.845688 215.814957,186.777863 
	C214.322372,188.381195 213.418228,188.967560 213.070496,189.789368 
	C211.039124,194.590240 208.692657,195.583008 204.913757,192.158157 
	C199.115295,186.902908 192.292419,186.457184 185.273956,187.213928 
	C167.088165,189.174774 157.906250,207.367722 167.276932,222.711029 
	C168.091370,224.044586 169.915375,225.505386 171.346405,225.587769 
	C177.057068,225.916519 182.797791,225.723343 189.755646,225.723343 
	C185.953766,222.872101 183.055313,220.988876 180.498398,218.720673 
	C175.086838,213.920135 172.802490,207.932800 174.755112,200.761566 
	C176.415146,194.664917 180.692337,191.101364 186.757050,190.170303 
	C194.209183,189.026291 201.615356,190.031403 205.699478,197.068588 
	C208.860077,202.514496 210.381149,208.911911 213.013458,215.621109 
M215.413101,261.166504 
	C213.332626,261.166504 211.252136,261.166504 208.944183,261.166504 
	C208.944183,263.568420 209.064499,265.234253 208.923752,266.877716 
	C208.244308,274.811768 203.027786,280.649017 195.344482,281.880341 
	C185.034378,283.532623 171.611969,279.040649 169.334976,265.438629 
	C168.865692,262.635162 168.130066,260.034210 163.786865,261.826782 
	C163.786865,269.031525 163.786865,276.376984 163.786865,285.196564 
	C165.349075,283.517090 166.553329,282.825134 166.728760,281.931213 
	C167.561676,277.687531 169.841125,277.891693 172.854965,279.586670 
	C183.368240,285.499176 193.988617,286.843048 205.642365,282.260559 
	C214.461685,278.792542 220.600540,271.614929 220.649597,261.421356 
	C219.226303,261.337585 217.774506,261.252136 215.413101,261.166504 
M298.254578,225.746460 
	C299.688629,225.669250 301.122681,225.592041 303.206177,225.479874 
	C298.147736,212.553375 293.276489,200.105240 288.405212,187.657104 
	C287.776855,187.702957 287.148468,187.748795 286.520111,187.794647 
	C281.684540,200.266251 276.848938,212.737839 272.013367,225.209442 
	C272.636078,225.500320 273.258789,225.791199 273.881500,226.082077 
	C277.941437,220.398880 278.851135,213.049301 282.733917,206.375732 
	C284.644104,211.085205 286.777130,215.069717 287.854370,219.321686 
	C289.207886,224.663986 292.088226,226.737732 298.254578,225.746460 
M308.226044,273.928009 
	C309.647095,278.783875 307.261719,280.626404 302.777191,281.114594 
	C301.455811,281.258453 300.219696,282.186096 298.944519,282.754547 
	C299.173798,283.136292 299.403076,283.518066 299.632355,283.899811 
	C309.992432,283.899811 320.352478,283.899811 331.912201,283.899811 
	C330.548767,282.434845 329.910431,281.734467 329.256531,281.048950 
	C326.730896,278.401093 323.785767,276.032959 321.794769,273.031372 
	C320.005188,270.333496 319.408051,266.871613 317.980316,263.892761 
	C317.443909,262.773529 316.112610,261.393433 315.035522,261.293060 
	C311.509186,260.964508 307.933075,261.169739 303.858612,261.169739 
	C305.428802,265.638367 306.738831,269.366577 308.226044,273.928009 
M260.597198,279.027557 
	C254.671646,273.310760 260.467590,267.270355 259.527771,261.014374 
	C256.893280,264.898041 255.385315,269.404907 252.873352,273.257050 
	C250.423996,277.013245 246.948196,280.100098 243.810669,283.606354 
	C252.961868,283.606354 261.277344,283.606354 269.592834,283.606354 
	C269.688446,283.135254 269.784058,282.664154 269.879669,282.193054 
	C266.997498,281.298004 264.115326,280.402985 260.597198,279.027557 
M235.002167,287.500000 
	C235.002167,279.256287 235.002167,271.012604 235.002167,262.768890 
	C234.745697,262.771240 234.489227,262.773590 234.232758,262.775940 
	C234.232758,283.585907 234.232758,304.395905 234.232758,325.205872 
	C234.489258,325.207642 234.745743,325.209412 235.002243,325.211212 
	C235.002243,312.974121 235.002243,300.737061 235.002167,287.500000 
M235.074463,210.486725 
	C235.074463,194.239487 235.074463,177.992249 235.074463,161.745010 
	C234.792053,161.746536 234.509659,161.748062 234.227249,161.749603 
	C234.227249,182.261536 234.227249,202.773468 234.227249,223.285400 
	C234.509689,223.291794 234.792114,223.298203 235.074554,223.304611 
	C235.074554,219.362534 235.074554,215.420471 235.074463,210.486725 
M199.083542,245.310059 
	C199.083542,242.342926 199.083542,239.375809 199.083542,236.408676 
	C198.652939,236.435608 198.222351,236.462524 197.791748,236.489456 
	C197.791748,241.154068 197.791748,245.818665 197.791748,250.483276 
	C198.138092,250.483948 198.484436,250.484619 198.830795,250.485291 
	C198.914459,249.061020 198.998123,247.636734 199.083542,245.310059 
M242.943146,248.964264 
	C243.224655,249.581161 243.506165,250.198059 244.287048,251.909241 
	C244.287048,245.902527 244.287048,241.204025 244.287048,236.505508 
	C243.831345,236.498611 243.375626,236.491699 242.919922,236.484787 
	C242.919922,240.346466 242.919922,244.208145 242.943146,248.964264 
M205.109116,247.870972 
	C205.333313,248.694214 205.557510,249.517456 205.781723,250.340714 
	C205.966782,250.284363 206.151855,250.228027 206.336914,250.171692 
	C206.336914,245.804825 206.336914,241.437943 206.336914,237.071060 
	C205.924164,237.089554 205.511414,237.108032 205.098663,237.126511 
	C205.098663,240.423218 205.098663,243.719940 205.109116,247.870972 
z"/>
<path fill="#5BB5CB" opacity="1.000000" stroke="none" 
	d="
M212.822266,215.253723 
	C210.381149,208.911911 208.860077,202.514496 205.699478,197.068588 
	C201.615356,190.031403 194.209183,189.026291 186.757050,190.170303 
	C180.692337,191.101364 176.415146,194.664917 174.755112,200.761566 
	C172.802490,207.932800 175.086838,213.920135 180.498398,218.720673 
	C183.055313,220.988876 185.953766,222.872101 189.755646,225.723343 
	C182.797791,225.723343 177.057068,225.916519 171.346405,225.587769 
	C169.915375,225.505386 168.091370,224.044586 167.276932,222.711029 
	C157.906250,207.367722 167.088165,189.174774 185.273956,187.213928 
	C192.292419,186.457184 199.115295,186.902908 204.913757,192.158157 
	C208.692657,195.583008 211.039124,194.590240 213.070496,189.789368 
	C213.418228,188.967560 214.322372,188.381195 215.814957,186.777863 
	C215.814957,196.845688 215.858521,205.554001 215.695541,214.258453 
	C215.686737,214.729263 213.947296,215.167633 212.822266,215.253723 
z"/>
<path fill="#5BB5CB" opacity="1.000000" stroke="none" 
	d="
M215.867889,261.166595 
	C217.774506,261.252136 219.226303,261.337585 220.649597,261.421356 
	C220.600540,271.614929 214.461685,278.792542 205.642365,282.260559 
	C193.988617,286.843048 183.368240,285.499176 172.854965,279.586670 
	C169.841125,277.891693 167.561676,277.687531 166.728760,281.931213 
	C166.553329,282.825134 165.349075,283.517090 163.786865,285.196564 
	C163.786865,276.376984 163.786865,269.031525 163.786865,261.826782 
	C168.130066,260.034210 168.865692,262.635162 169.334976,265.438629 
	C171.611969,279.040649 185.034378,283.532623 195.344482,281.880341 
	C203.027786,280.649017 208.244308,274.811768 208.923752,266.877716 
	C209.064499,265.234253 208.944183,263.568420 208.944183,261.166504 
	C211.252136,261.166504 213.332626,261.166504 215.867889,261.166595 
z"/>
<path fill="#5BB5CB" opacity="1.000000" stroke="none" 
	d="
M297.817810,225.744507 
	C292.088226,226.737732 289.207886,224.663986 287.854370,219.321686 
	C286.777130,215.069717 284.644104,211.085205 282.733917,206.375732 
	C278.851135,213.049301 277.941437,220.398880 273.881500,226.082077 
	C273.258789,225.791199 272.636078,225.500320 272.013367,225.209442 
	C276.848938,212.737839 281.684540,200.266251 286.520111,187.794647 
	C287.148468,187.748795 287.776855,187.702957 288.405212,187.657104 
	C293.276489,200.105240 298.147736,212.553375 303.206177,225.479874 
	C301.122681,225.592041 299.688629,225.669250 297.817810,225.744507 
z"/>
<path fill="#5BB5CB" opacity="1.000000" stroke="none" 
	d="
M308.137451,273.511414 
	C306.738831,269.366577 305.428802,265.638367 303.858612,261.169739 
	C307.933075,261.169739 311.509186,260.964508 315.035522,261.293060 
	C316.112610,261.393433 317.443909,262.773529 317.980316,263.892761 
	C319.408051,266.871613 320.005188,270.333496 321.794769,273.031372 
	C323.785767,276.032959 326.730896,278.401093 329.256531,281.048950 
	C329.910431,281.734467 330.548767,282.434845 331.912201,283.899811 
	C320.352478,283.899811 309.992432,283.899811 299.632355,283.899811 
	C299.403076,283.518066 299.173798,283.136292 298.944519,282.754547 
	C300.219696,282.186096 301.455811,281.258453 302.777191,281.114594 
	C307.261719,280.626404 309.647095,278.783875 308.137451,273.511414 
z"/>
<path fill="#5BB5CB" opacity="1.000000" stroke="none" 
	d="
M260.915161,279.267761 
	C264.115326,280.402985 266.997498,281.298004 269.879669,282.193054 
	C269.784058,282.664154 269.688446,283.135254 269.592834,283.606354 
	C261.277344,283.606354 252.961868,283.606354 243.810669,283.606354 
	C246.948196,280.100098 250.423996,277.013245 252.873352,273.257050 
	C255.385315,269.404907 256.893280,264.898041 259.527771,261.014374 
	C260.467590,267.270355 254.671646,273.310760 260.915161,279.267761 
z"/>
<path fill="#2F2F2F" opacity="1.000000" stroke="none" 
	d="
M235.002197,288.000000 
	C235.002243,300.737061 235.002243,312.974121 235.002243,325.211212 
	C234.745743,325.209412 234.489258,325.207642 234.232758,325.205872 
	C234.232758,304.395905 234.232758,283.585907 234.232758,262.775940 
	C234.489227,262.773590 234.745697,262.771240 235.002167,262.768890 
	C235.002167,271.012604 235.002167,279.256287 235.002197,288.000000 
z"/>
<path fill="#2F2F2F" opacity="1.000000" stroke="none" 
	d="
M235.074509,210.982559 
	C235.074554,215.420471 235.074554,219.362534 235.074554,223.304611 
	C234.792114,223.298203 234.509689,223.291794 234.227249,223.285400 
	C234.227249,202.773468 234.227249,182.261536 234.227249,161.749603 
	C234.509659,161.748062 234.792053,161.746536 235.074463,161.745010 
	C235.074463,177.992249 235.074463,194.239487 235.074509,210.982559 
z"/>
<path fill="#3F6A70" opacity="1.000000" stroke="none" 
	d="
M199.082672,245.761261 
	C198.998123,247.636734 198.914459,249.061020 198.830795,250.485291 
	C198.484436,250.484619 198.138092,250.483948 197.791748,250.483276 
	C197.791748,245.818665 197.791748,241.154068 197.791748,236.489456 
	C198.222351,236.462524 198.652939,236.435608 199.083542,236.408676 
	C199.083542,239.375809 199.083542,242.342926 199.082672,245.761261 
z"/>
<path fill="#3F6A70" opacity="1.000000" stroke="none" 
	d="
M242.931534,248.517044 
	C242.919922,244.208145 242.919922,240.346466 242.919922,236.484787 
	C243.375626,236.491699 243.831345,236.498611 244.287048,236.505508 
	C244.287048,241.204025 244.287048,245.902527 244.287048,251.909241 
	C243.506165,250.198059 243.224655,249.581161 242.931534,248.517044 
z"/>
<path fill="#3F6A70" opacity="1.000000" stroke="none" 
	d="
M205.103882,247.443817 
	C205.098663,243.719940 205.098663,240.423218 205.098663,237.126511 
	C205.511414,237.108032 205.924164,237.089554 206.336914,237.071060 
	C206.336914,241.437943 206.336914,245.804825 206.336914,250.171692 
	C206.151855,250.228027 205.966782,250.284363 205.781723,250.340714 
	C205.557510,249.517456 205.333313,248.694214 205.103882,247.443817 
z"/>
<path fill="#3F6A70" opacity="1.000000" stroke="none" 
	d="
M233.766449,248.740479 
	C234.339630,244.680618 234.912827,240.620743 235.486023,236.560883 
	C236.736694,240.765076 237.832458,244.985611 234.647186,249.160797 
	C234.031830,249.032516 233.899139,248.886505 233.766449,248.740479 
z"/>
<path fill="#3F6A70" opacity="1.000000" stroke="none" 
	d="
M234.357864,249.402542 
	C233.643723,250.111664 232.736206,250.596756 231.828705,251.081848 
	C231.671478,250.870941 231.514252,250.660034 231.357025,250.449112 
	C231.960632,249.942871 232.564255,249.436630 233.467163,248.835419 
	C233.899139,248.886505 234.031830,249.032516 234.357864,249.402542 
z"/>
</svg>